# xmcd
#
# Track frame offsets: 
#        150
#        13127
#        25021
#        44870
#        63253
#        88059
#        104229
#        124614
#        145038
#
# Disc length: 2162 seconds
#
# Revision: 0
# Processed by: cddbd v1.5.2PL0 Copyright (c) Steve Scherf et al.
# Submitted via: ExactAudioCopyFreeDBPlugin 1.0
#
DISCID=7d087009
DTITLE=Swamp Dogg - Love, Loss, And Auto-Tune
DYEAR=2018
DGENRE=RnB
TTITLE0=Answer Me, My Love 
TTITLE1=Lonely 
TTITLE2=I'll Pretend 
TTITLE3=I'm Coming With Love On My Mind 
TTITLE4=$$$ Huntin' 
TTITLE5=I Love Me More 
TTITLE6=Sex With Your Ex 
TTITLE7=She's All Mind All Mind 
TTITLE8=Star Dust 
EXTD=
EXTT0=
EXTT1=
EXTT2=
EXTT3=
EXTT4=
EXTT5=
EXTT6=
EXTT7=
EXTT8=
PLAYORDER=
